<svg xmlns="http://www.w3.org/2000/svg" width="960" height="620" viewBox="0 0 960 620">
  <rect width="960" height="620" fill="#000"/>
  <text x="40" y="42" fill="#ff0033" font-family="ui-monospace,monospace" font-size="14" letter-spacing="3">ATHESIS · IMPLEMENTATION ARCHITECTURE</text>
  <text x="40" y="64" fill="#5a5650" font-family="ui-monospace,monospace" font-size="11">PHP 8.2 · Apache · MySQL 8 · Odyssey UI</text>

  <!-- Browser -->
  <rect x="360" y="90" width="240" height="50" fill="#050505" stroke="#ff0033" stroke-width="1.5"/>
  <text x="480" y="120" text-anchor="middle" fill="#e8e4e0" font-family="ui-monospace,monospace" font-size="13">Browser / Client</text>

  <line x1="480" y1="140" x2="480" y2="175" stroke="#ff0033" stroke-width="1"/>
  <polygon points="480,180 474,168 486,168" fill="#ff0033"/>

  <!-- Apache -->
  <rect x="300" y="185" width="360" height="55" fill="#050505" stroke="#1a1a1a" stroke-width="1"/>
  <text x="480" y="210" text-anchor="middle" fill="#e8e4e0" font-family="ui-monospace,monospace" font-size="13">Apache (Docker :8088→80)</text>
  <text x="480" y="228" text-anchor="middle" fill="#8a8680" font-family="ui-monospace,monospace" font-size="11">mod_rewrite · static assets · public/</text>

  <line x1="480" y1="240" x2="480" y2="275" stroke="#ff0033" stroke-width="1"/>
  <polygon points="480,280 474,268 486,268" fill="#ff0033"/>

  <!-- PHP App -->
  <rect x="80" y="290" width="800" height="170" fill="#050505" stroke="#1a1a1a" stroke-width="1"/>
  <text x="100" y="315" fill="#ff0033" font-family="ui-monospace,monospace" font-size="12">PHP APPLICATION</text>

  <rect x="100" y="330" width="160" height="100" fill="#000" stroke="#141414"/>
  <text x="180" y="360" text-anchor="middle" fill="#e8e4e0" font-family="ui-monospace,monospace" font-size="12">config/</text>
  <text x="180" y="382" text-anchor="middle" fill="#8a8680" font-family="ui-monospace,monospace" font-size="10">config · db</text>
  <text x="180" y="400" text-anchor="middle" fill="#8a8680" font-family="ui-monospace,monospace" font-size="10">security · CSP</text>

  <rect x="280" y="330" width="160" height="100" fill="#000" stroke="#141414"/>
  <text x="360" y="360" text-anchor="middle" fill="#e8e4e0" font-family="ui-monospace,monospace" font-size="12">includes/</text>
  <text x="360" y="382" text-anchor="middle" fill="#8a8680" font-family="ui-monospace,monospace" font-size="10">functions · blog</text>
  <text x="360" y="400" text-anchor="middle" fill="#8a8680" font-family="ui-monospace,monospace" font-size="10">header · footer</text>

  <rect x="460" y="330" width="180" height="100" fill="#000" stroke="#141414"/>
  <text x="550" y="355" text-anchor="middle" fill="#e8e4e0" font-family="ui-monospace,monospace" font-size="12">public/</text>
  <text x="550" y="375" text-anchor="middle" fill="#8a8680" font-family="ui-monospace,monospace" font-size="10">auth · forum · blog</text>
  <text x="550" y="393" text-anchor="middle" fill="#8a8680" font-family="ui-monospace,monospace" font-size="10">pages · images</text>
  <text x="550" y="411" text-anchor="middle" fill="#8a8680" font-family="ui-monospace,monospace" font-size="10">css · js · uploads</text>

  <rect x="660" y="330" width="190" height="100" fill="#000" stroke="#ff0033" stroke-opacity="0.5"/>
  <text x="755" y="360" text-anchor="middle" fill="#e8e4e0" font-family="ui-monospace,monospace" font-size="12">UI / Design</text>
  <text x="755" y="382" text-anchor="middle" fill="#ff0033" font-family="ui-monospace,monospace" font-size="10">#000 · #ff0033</text>
  <text x="755" y="400" text-anchor="middle" fill="#8a8680" font-family="ui-monospace,monospace" font-size="10">JetBrains Mono</text>
  <text x="755" y="418" text-anchor="middle" fill="#8a8680" font-family="ui-monospace,monospace" font-size="10">style.css tokens</text>

  <line x1="480" y1="460" x2="480" y2="500" stroke="#ff0033" stroke-width="1"/>
  <polygon points="480,505 474,493 486,493" fill="#ff0033"/>

  <!-- MySQL -->
  <rect x="300" y="515" width="360" height="70" fill="#050505" stroke="#ff0033" stroke-width="1.5"/>
  <text x="480" y="545" text-anchor="middle" fill="#e8e4e0" font-family="ui-monospace,monospace" font-size="13">MySQL 8 · php_forum</text>
  <text x="480" y="565" text-anchor="middle" fill="#8a8680" font-family="ui-monospace,monospace" font-size="11">users · topics · replies · blog_* · sessions</text>
</svg>
